<svg xmlns="http://www.w3.org/2000/svg" xmlns:xlink="http://www.w3.org/1999/xlink" width="500" zoomAndPan="magnify" viewBox="0 0 375 374.999991" height="500" preserveAspectRatio="xMidYMid meet" version="1.0"><defs><clipPath id="id1"><path d="M 75 14 L 306 14 L 306 366.089844 L 75 366.089844 Z M 75 14 " clip-rule="nonzero"/></clipPath></defs><g clip-path="url(#id1)"><path fill="#ffffff" d="M 305.710938 190.472656 C 305.710938 205.023438 300.003906 218.699219 289.71875 228.984375 L 168.589844 350.097656 C 158.300781 360.382812 144.5625 366.089844 130.074219 366.089844 C 115.519531 366.089844 101.847656 360.382812 91.496094 350.097656 C 70.292969 328.898438 70.292969 294.335938 91.496094 273.074219 L 174.171875 190.472656 L 91.496094 107.808594 C 70.292969 86.609375 70.292969 52.050781 91.496094 30.789062 C 112.761719 9.589844 147.324219 9.589844 168.589844 30.789062 L 289.71875 151.964844 C 300.003906 162.25 305.710938 175.921875 305.710938 190.472656 Z M 305.710938 190.472656 " fill-opacity="1" fill-rule="nonzero"/></g></svg>