<svg xmlns="http://www.w3.org/2000/svg" xmlns:xlink="http://www.w3.org/1999/xlink" width="500" zoomAndPan="magnify" viewBox="0 0 375 374.999991" height="500" preserveAspectRatio="xMidYMid meet" version="1.0"><defs><clipPath id="id1"><path d="M 52 9.742188 L 289 9.742188 L 289 370 L 52 370 Z M 52 9.742188 " clip-rule="nonzero"/></clipPath></defs><g clip-path="url(#id1)"><path fill="#ffffff" d="M 52.636719 189.796875 C 52.636719 174.878906 58.488281 160.859375 69.035156 150.3125 L 193.226562 26.140625 C 203.773438 15.59375 217.855469 9.742188 232.714844 9.742188 C 247.632812 9.742188 261.652344 15.59375 272.265625 26.140625 C 294.003906 47.875 294.003906 83.308594 272.265625 105.105469 L 187.5 189.796875 L 272.265625 274.550781 C 294.003906 296.285156 294.003906 331.714844 272.265625 353.515625 C 250.464844 375.25 215.027344 375.25 193.226562 353.515625 L 69.035156 229.277344 C 58.488281 218.734375 52.636719 204.714844 52.636719 189.796875 Z M 52.636719 189.796875 " fill-opacity="1" fill-rule="nonzero"/></g></svg>