<svg xmlns="http://www.w3.org/2000/svg" xmlns:xlink="http://www.w3.org/1999/xlink" width="500" zoomAndPan="magnify" viewBox="0 0 375 374.999991" height="500" preserveAspectRatio="xMidYMid meet" version="1.0"><defs><g/></defs><rect x="-37.5" width="450" fill="#ffffff" y="-37.499999" height="449.999989" fill-opacity="1"/><rect x="-37.5" width="450" fill="#ffffff" y="-37.499999" height="449.999989" fill-opacity="1"/><rect x="-37.5" width="450" fill="#fefefd" y="-37.499999" height="449.999989" fill-opacity="1"/><g fill="#080808" fill-opacity="1"><g transform="translate(98.547629, 203.624987)"><g><path d="M 13.859375 -8.398438 L 13.859375 -42 L 4.800781 -42 L 4.800781 0 L 30 0 L 30 -8.398438 Z M 13.859375 -8.398438 "/></g></g></g><g fill="#080808" fill-opacity="1"><g transform="translate(129.8676, 203.624987)"><g><path d="M 24.71875 0.960938 C 37.5 0.960938 47.039062 -8.460938 47.039062 -21 C 47.039062 -33.480469 37.5 -42.898438 24.71875 -42.898438 C 11.878906 -42.898438 2.28125 -33.421875 2.28125 -21 C 2.28125 -8.519531 11.878906 0.960938 24.71875 0.960938 Z M 24.71875 -7.621094 C 17.21875 -7.621094 11.519531 -13.441406 11.519531 -21 C 11.519531 -28.558594 17.21875 -34.320312 24.71875 -34.320312 C 32.21875 -34.320312 37.800781 -28.621094 37.800781 -21 C 37.800781 -13.378906 32.21875 -7.621094 24.71875 -7.621094 Z M 24.71875 -7.621094 "/></g></g></g><g fill="#080808" fill-opacity="1"><g transform="translate(179.247548, 203.624987)"><g><path d="M 23.21875 -21.898438 L 23.21875 -14.941406 L 35.820312 -14.941406 C 34.261719 -10.621094 29.519531 -7.738281 24.121094 -7.738281 C 16.558594 -7.738281 11.578125 -13.140625 11.578125 -20.941406 C 11.578125 -28.800781 16.679688 -34.199219 24.121094 -34.199219 C 29.398438 -34.199219 33.839844 -31.378906 35.640625 -26.878906 L 45 -26.878906 C 43.019531 -36.300781 34.378906 -42.898438 23.941406 -42.898438 C 11.519531 -42.898438 2.339844 -33.480469 2.339844 -20.941406 C 2.339844 -8.339844 11.761719 0.960938 24.121094 0.960938 C 36.71875 0.960938 45.539062 -8.761719 45.539062 -21.898438 Z M 23.21875 -21.898438 "/></g></g></g><g fill="#080808" fill-opacity="1"><g transform="translate(227.067495, 203.624987)"><g><path d="M 24.71875 0.960938 C 37.5 0.960938 47.039062 -8.460938 47.039062 -21 C 47.039062 -33.480469 37.5 -42.898438 24.71875 -42.898438 C 11.878906 -42.898438 2.28125 -33.421875 2.28125 -21 C 2.28125 -8.519531 11.878906 0.960938 24.71875 0.960938 Z M 24.71875 -7.621094 C 17.21875 -7.621094 11.519531 -13.441406 11.519531 -21 C 11.519531 -28.558594 17.21875 -34.320312 24.71875 -34.320312 C 32.21875 -34.320312 37.800781 -28.621094 37.800781 -21 C 37.800781 -13.378906 32.21875 -7.621094 24.71875 -7.621094 Z M 24.71875 -7.621094 "/></g></g></g></svg>